{"title":"The Da Vinci Code(2006)Hindi dubbed.aaaevilacharya","uid":5909602,"size":789956278,"categoryP":"video","categoryS":"movies","magnet":"?xt=urn:btih:8f330b5f85577d4da48a5d4bf3e7ffbf8c460fc9&amp;dn=The+Da+Vinci+Code%282006%29Hindi+dubbed.aaaevilacharya&amp;tr=udp%3A%2F%2Ftracker.openbittorrent.com%3A80&amp;tr=udp%3A%2F%2Fopen.demonii.com%3A1337&amp;tr=udp%3A%2F%2Ftracker.coppersurfer.tk%3A6969&amp;tr=udp%3A%2F%2Fexodus.desync.com%3A6969","seeders":0,"leechers":1,"uploader":"achaevil","files":3,"time":1287999328,"description":"General\nComplete name : The Da Vinci Code(2006)Hindi-DVDRip.aaaevilacharya.mkv\nFormat : Matroska\nFile size : 753 MiB\nDuration : 2h 19mn\nOverall bit rate : 757 Kbps\nEncoded date : UTC 2010-10-25 15:57:47\n\nVideo\nID : 1\nFormat : MPEG-4 Visual\nFormat profile : Advanced Simple@L5\nFormat settings, Matrix : Default (H.263)\nCodec ID : XVID\nCodec ID/Hint : XviD\nDuration : 2h 19mn\nBit rate : 630 Kbps\nWidth : 720 pixels\nHeight : 392 pixels\nDisplay aspect ratio : 16:9\nOriginal display aspect ratio : 4:3\nFrame rate : 25.000 fps\nColor space : YUV\nChroma subsampling : 4:2:0\nBit depth : 8 bits\nScan type : Progressive\nBits/(Pixel*Frame) : 0.093\nStream size : 627 MiB (83%)\nTitle : tdvc\n\nLanguage : hindi\n\nAudio\nID : 2\nFormat : MPEG Audio\nFormat version : Version 1\nFormat profile : Layer 3\nMode : Joint stereo\nMode extension : MS Stereo\nCodec ID : A_MPEG/L3\nCodec ID/Hint : MP3\nDuration : 2h 19mn\nBit rate mode : Constant\nBit rate : 112 Kbps\nChannel(s) : 2 channels\nSampling rate : 44.1 KHz\nStream size : 111 MiB (15%)\nTitle : aaaevilacharya hindi\n\nLanguage : Hindi\n\nscreenshots\n &lt;a href=&quot;\nhttp://img215.imageshack.us/img215/5314/vlcsnap2010102512h03m59.png&quot; rel=&quot;nofollow&quot; target=&quot;_NEW&quot;&gt;\nhttp://img215.imageshack.us/img215/5314/vlcsnap2010102512h03m59.png&lt;/a&gt;\n &lt;a href=&quot;\nhttp://img87.imageshack.us/img87/6449/thedavincicode2006dutch.jpg&quot; rel=&quot;nofollow&quot; target=&quot;_NEW&quot;&gt;\nhttp://img87.imageshack.us/img87/6449/thedavincicode2006dutch.jpg&lt;/a&gt;\n &lt;a href=&quot;\nhttp://img651.imageshack.us/img651/582/vlcsnap2010102512h01m56.png&quot; rel=&quot;nofollow&quot; target=&quot;_NEW&quot;&gt;\nhttp://img651.imageshack.us/img651/582/vlcsnap2010102512h01m56.png&lt;/a&gt;\n &lt;a href=&quot;\nhttp://img46.imageshack.us/img46/797/vlcsnap2010102512h02m19.png&quot; rel=&quot;nofollow&quot; target=&quot;_NEW&quot;&gt;\nhttp://img46.imageshack.us/img46/797/vlcsnap2010102512h02m19.png&lt;/a&gt;\n &lt;a href=&quot;\nhttp://img814.imageshack.us/img814/8100/vlcsnap2010102512h03m21.png&quot; rel=&quot;nofollow&quot; target=&quot;_NEW&quot;&gt;\nhttp://img814.imageshack.us/img814/8100/vlcsnap2010102512h03m21.png&lt;/a&gt;\n &lt;a href=&quot;\nhttp://img697.imageshack.us/img697/2935/vlcsnap2010102512h03m29.png&quot; rel=&quot;nofollow&quot; target=&quot;_NEW&quot;&gt;\nhttp://img697.imageshack.us/img697/2935/vlcsnap2010102512h03m29.png&lt;/a&gt;\n","torrent":{"xt":"urn:btih:8f330b5f85577d4da48a5d4bf3e7ffbf8c460fc9","amp;dn":"The+Da+Vinci+Code%282006%29Hindi+dubbed.aaaevilacharya","amp;tr":["udp%3A%2F%2Ftracker.openbittorrent.com%3A80","udp%3A%2F%2Fopen.demonii.com%3A1337","udp%3A%2F%2Ftracker.coppersurfer.tk%3A6969","udp%3A%2F%2Fexodus.desync.com%3A6969"],"infoHash":"8f330b5f85577d4da48a5d4bf3e7ffbf8c460fc9","infoHashBuffer":{"type":"Buffer","data":[143,51,11,95,133,87,125,77,164,138,93,75,243,231,255,191,140,70,15,201]},"announce":[],"urlList":[]}}